<?xml version="1.0" encoding="UTF-8" standalone="no"?>
<!DOCTYPE svg PUBLIC "-//W3C//DTD SVG 1.1//EN" "http://www.w3.org/Graphics/SVG/1.1/DTD/svg11.dtd">
<svg version="1.1" xmlns="http://www.w3.org/2000/svg" xmlns:xlink="http://www.w3.org/1999/xlink" preserveAspectRatio="xMidYMid meet" viewBox="11.729531156725045 5.038274326124011 98.19117647058822 98.19117647058812" width="94.19" height="94.19"><defs><path d="M106.92 6.04L106.92 100.23L12.73 100.23L12.73 6.04L106.92 6.04Z" id="fTJL3a7Bc"></path><path d="M67.5 15.46L67.57 15.47L67.64 15.48L67.71 15.49L67.77 15.5L67.84 15.52L67.9 15.53L67.97 15.55L68.03 15.58L68.09 15.6L68.16 15.63L68.22 15.65L68.28 15.68L68.33 15.72L68.39 15.75L68.45 15.79L68.5 15.82L68.55 15.86L68.6 15.9L68.65 15.95L68.7 15.99L68.75 16.04L68.79 16.09L68.83 16.14L68.88 16.19L68.92 16.24L68.95 16.3L68.99 16.35L69.02 16.41L69.05 16.47L69.08 16.53L69.11 16.59L69.14 16.66L69.16 16.72L69.18 16.78L69.2 16.85L69.22 16.92L69.23 16.99L69.24 17.06L70.66 27.04L70.83 27.11L71 27.19L71.17 27.26L71.34 27.33L71.51 27.41L71.68 27.49L71.85 27.56L72.01 27.64L72.18 27.72L72.35 27.8L72.51 27.88L72.67 27.97L72.84 28.05L73 28.14L73.16 28.22L73.32 28.31L73.48 28.4L73.64 28.49L73.8 28.58L73.96 28.67L74.12 28.76L74.27 28.85L74.43 28.95L74.59 29.04L74.74 29.14L74.9 29.24L75.05 29.34L75.21 29.44L75.36 29.54L75.51 29.64L75.66 29.74L75.82 29.85L75.97 29.95L76.12 30.06L76.27 30.16L76.42 30.27L76.57 30.38L76.72 30.49L76.87 30.6L77.02 30.72L86.39 26.95L86.45 26.93L86.52 26.91L86.58 26.89L86.64 26.88L86.71 26.87L86.78 26.86L86.84 26.85L86.91 26.85L86.97 26.84L87.04 26.84L87.1 26.84L87.17 26.85L87.24 26.85L87.3 26.86L87.37 26.87L87.43 26.88L87.49 26.89L87.56 26.91L87.62 26.93L87.68 26.95L87.74 26.97L87.8 27L87.86 27.02L87.92 27.05L87.98 27.08L88.04 27.11L88.09 27.15L88.15 27.19L88.2 27.23L88.25 27.27L88.31 27.31L88.36 27.36L88.4 27.4L88.45 27.45L88.5 27.51L88.54 27.56L88.58 27.62L88.62 27.67L88.66 27.73L88.69 27.8L96.23 40.84L96.26 40.9L96.29 40.96L96.32 41.03L96.34 41.09L96.36 41.15L96.38 41.22L96.4 41.28L96.41 41.34L96.42 41.41L96.43 41.48L96.44 41.54L96.45 41.61L96.45 41.67L96.45 41.74L96.45 41.8L96.45 41.87L96.45 41.94L96.44 42L96.43 42.07L96.42 42.13L96.4 42.2L96.39 42.26L96.37 42.32L96.35 42.38L96.33 42.45L96.31 42.51L96.28 42.57L96.25 42.63L96.22 42.69L96.19 42.74L96.16 42.8L96.12 42.85L96.08 42.91L96.04 42.96L96 43.01L95.96 43.06L95.91 43.11L95.86 43.16L95.81 43.2L95.76 43.24L87.8 49.46L87.81 49.55L87.83 49.64L87.84 49.73L87.85 49.82L87.87 49.9L87.88 49.99L87.89 50.08L87.9 50.17L87.91 50.26L87.92 50.35L87.93 50.44L87.94 50.53L87.95 50.62L87.96 50.71L87.97 50.8L87.98 50.9L87.99 50.99L88 51.08L88 51.17L88.01 51.26L88.02 51.35L88.03 51.45L88.03 51.54L88.04 51.63L88.04 51.72L88.05 51.82L88.05 51.91L88.06 52L88.06 52.1L88.06 52.19L88.07 52.28L88.07 52.38L88.07 52.47L88.08 52.56L88.08 52.66L88.08 52.75L88.08 52.85L88.08 52.94L88.08 53.04L88.08 53.13L88.08 53.2L88.08 53.26L88.08 53.33L88.08 53.4L88.08 53.47L88.08 53.54L88.08 53.61L88.07 53.69L88.07 53.76L88.07 53.84L88.06 53.92L88.06 54L88.06 54.08L88.05 54.16L88.05 54.25L88.04 54.33L88.04 54.42L88.03 54.51L88.03 54.6L88.02 54.69L88.02 54.78L88.01 54.87L88 54.97L88 55.07L87.99 55.16L87.98 55.26L87.98 55.37L87.97 55.47L87.96 55.57L87.95 55.68L87.94 55.78L87.93 55.89L87.92 56L87.91 56.11L87.9 56.22L87.89 56.34L87.88 56.45L87.87 56.57L87.86 56.69L87.85 56.81L95.71 63.02L95.77 63.07L95.82 63.11L95.87 63.16L95.92 63.21L95.97 63.25L96.01 63.3L96.06 63.36L96.1 63.41L96.13 63.46L96.17 63.52L96.2 63.57L96.24 63.63L96.26 63.69L96.29 63.75L96.32 63.81L96.34 63.87L96.36 63.93L96.38 63.99L96.39 64.06L96.41 64.12L96.42 64.18L96.43 64.25L96.43 64.31L96.44 64.38L96.44 64.44L96.44 64.51L96.44 64.57L96.43 64.64L96.42 64.71L96.41 64.77L96.4 64.84L96.39 64.9L96.37 64.97L96.35 65.04L96.33 65.1L96.3 65.17L96.28 65.23L96.25 65.3L96.22 65.36L96.18 65.43L88.65 78.47L88.61 78.53L88.57 78.59L88.53 78.65L88.49 78.71L88.45 78.76L88.4 78.82L88.36 78.87L88.31 78.92L88.26 78.96L88.21 79.01L88.16 79.05L88.1 79.09L88.05 79.13L87.99 79.16L87.93 79.2L87.88 79.23L87.82 79.26L87.76 79.29L87.7 79.31L87.64 79.34L87.57 79.36L87.51 79.38L87.45 79.39L87.38 79.41L87.32 79.42L87.25 79.43L87.19 79.44L87.12 79.44L87.06 79.44L86.99 79.44L86.93 79.44L86.86 79.44L86.79 79.43L86.73 79.42L86.66 79.41L86.6 79.4L86.53 79.38L86.47 79.36L86.4 79.34L86.34 79.32L76.97 75.55L76.82 75.66L76.68 75.77L76.53 75.88L76.38 75.98L76.23 76.09L76.09 76.2L75.94 76.3L75.79 76.4L75.64 76.51L75.48 76.61L75.33 76.71L75.18 76.81L75.03 76.91L74.87 77.01L74.72 77.11L74.56 77.2L74.4 77.3L74.25 77.39L74.09 77.49L73.93 77.58L73.77 77.67L73.61 77.77L73.45 77.86L73.29 77.95L73.13 78.03L72.96 78.12L72.8 78.21L72.64 78.29L72.47 78.38L72.31 78.46L72.14 78.54L71.97 78.62L71.8 78.7L71.64 78.78L71.47 78.86L71.3 78.93L71.13 79.01L70.95 79.08L70.78 79.15L70.61 79.22L69.2 89.21L69.19 89.28L69.18 89.35L69.16 89.42L69.15 89.48L69.13 89.55L69.11 89.61L69.09 89.68L69.06 89.74L69.03 89.8L69 89.86L68.97 89.91L68.94 89.97L68.9 90.02L68.86 90.08L68.82 90.13L68.78 90.18L68.74 90.23L68.69 90.27L68.65 90.32L68.6 90.36L68.55 90.4L68.49 90.44L68.44 90.48L68.39 90.52L68.33 90.55L68.27 90.58L68.21 90.61L68.15 90.64L68.09 90.67L68.03 90.69L67.97 90.71L67.9 90.73L67.84 90.75L67.77 90.77L67.71 90.78L67.64 90.79L67.57 90.8L67.5 90.81L67.43 90.81L67.36 90.81L52.29 90.81L52.22 90.81L52.15 90.81L52.08 90.8L52.01 90.79L51.95 90.78L51.88 90.77L51.81 90.75L51.75 90.73L51.69 90.71L51.62 90.69L51.56 90.67L51.5 90.64L51.44 90.61L51.39 90.58L51.33 90.55L51.27 90.52L51.22 90.48L51.17 90.44L51.12 90.4L51.07 90.36L51.02 90.32L50.97 90.27L50.92 90.23L50.88 90.18L50.84 90.13L50.8 90.08L50.76 90.02L50.72 89.97L50.68 89.91L50.65 89.86L50.61 89.8L50.58 89.74L50.55 89.68L50.53 89.61L50.5 89.55L50.48 89.48L50.46 89.42L50.44 89.35L50.42 89.28L50.41 89.21L48.99 79.22L48.82 79.15L48.65 79.08L48.48 79.01L48.31 78.93L48.14 78.86L47.97 78.78L47.8 78.7L47.64 78.63L47.47 78.55L47.3 78.47L47.14 78.38L46.98 78.3L46.81 78.22L46.65 78.13L46.49 78.05L46.33 77.96L46.17 77.87L46.01 77.78L45.85 77.69L45.69 77.6L45.53 77.51L45.38 77.41L45.22 77.32L45.06 77.22L44.91 77.13L44.75 77.03L44.6 76.93L44.44 76.83L44.29 76.73L44.14 76.63L43.99 76.53L43.83 76.42L43.68 76.32L43.53 76.21L43.38 76.1L43.23 76L43.08 75.89L42.93 75.78L42.78 75.66L42.64 75.55L33.26 79.32L33.2 79.34L33.14 79.36L33.07 79.37L33.01 79.39L32.94 79.4L32.87 79.41L32.81 79.42L32.74 79.42L32.68 79.42L32.61 79.42L32.55 79.42L32.48 79.42L32.41 79.42L32.35 79.41L32.28 79.4L32.22 79.39L32.16 79.37L32.09 79.36L32.03 79.34L31.97 79.32L31.91 79.3L31.85 79.27L31.79 79.25L31.73 79.22L31.67 79.19L31.61 79.15L31.56 79.12L31.5 79.08L31.45 79.04L31.4 79L31.34 78.96L31.29 78.91L31.25 78.86L31.2 78.81L31.16 78.76L31.11 78.71L31.07 78.65L31.03 78.59L30.99 78.53L30.96 78.47L23.42 65.43L23.39 65.37L23.36 65.3L23.34 65.24L23.31 65.18L23.29 65.12L23.27 65.05L23.25 64.99L23.24 64.92L23.23 64.86L23.22 64.79L23.21 64.73L23.2 64.66L23.2 64.59L23.2 64.53L23.2 64.46L23.2 64.4L23.2 64.33L23.21 64.27L23.22 64.2L23.23 64.14L23.25 64.07L23.26 64.01L23.28 63.95L23.3 63.88L23.32 63.82L23.34 63.76L23.37 63.7L23.4 63.64L23.43 63.58L23.46 63.53L23.49 63.47L23.53 63.41L23.57 63.36L23.61 63.31L23.65 63.26L23.69 63.21L23.74 63.16L23.79 63.11L23.84 63.07L23.89 63.02L31.85 56.81L31.84 56.72L31.82 56.63L31.81 56.54L31.8 56.45L31.78 56.36L31.77 56.27L31.76 56.18L31.75 56.09L31.74 56L31.73 55.91L31.72 55.82L31.71 55.73L31.7 55.63L31.69 55.54L31.68 55.45L31.67 55.36L31.66 55.27L31.65 55.17L31.65 55.08L31.64 54.99L31.63 54.9L31.62 54.8L31.62 54.71L31.61 54.62L31.61 54.52L31.6 54.43L31.6 54.34L31.59 54.24L31.59 54.15L31.59 54.06L31.58 53.97L31.58 53.87L31.58 53.78L31.57 53.69L31.57 53.59L31.57 53.5L31.57 53.41L31.57 53.32L31.57 53.23L31.57 53.13L31.57 53.04L31.57 52.95L31.57 52.86L31.57 52.77L31.57 52.67L31.58 52.58L31.58 52.49L31.58 52.39L31.59 52.3L31.59 52.21L31.6 52.12L31.6 52.02L31.61 51.93L31.62 51.84L31.62 51.74L31.63 51.65L31.64 51.56L31.65 51.47L31.65 51.37L31.66 51.28L31.67 51.19L31.68 51.09L31.69 51L31.7 50.91L31.71 50.82L31.72 50.73L31.73 50.63L31.74 50.54L31.75 50.45L31.77 50.36L31.78 50.27L31.79 50.18L31.8 50.09L31.82 50L31.83 49.91L31.84 49.82L31.86 49.73L31.87 49.64L31.88 49.55L31.9 49.46L23.94 43.24L23.88 43.2L23.83 43.16L23.78 43.11L23.73 43.06L23.68 43.01L23.64 42.96L23.6 42.91L23.55 42.86L23.52 42.8L23.48 42.75L23.45 42.69L23.42 42.64L23.39 42.58L23.36 42.52L23.33 42.46L23.31 42.4L23.29 42.34L23.27 42.27L23.26 42.21L23.24 42.15L23.23 42.08L23.22 42.02L23.22 41.96L23.21 41.89L23.21 41.83L23.21 41.76L23.21 41.69L23.22 41.63L23.23 41.56L23.24 41.5L23.25 41.43L23.26 41.36L23.28 41.3L23.3 41.23L23.32 41.17L23.35 41.1L23.37 41.03L23.4 40.97L23.43 40.91L23.47 40.84L31 27.8L31.04 27.73L31.08 27.67L31.12 27.61L31.16 27.56L31.2 27.5L31.25 27.45L31.29 27.4L31.34 27.35L31.39 27.3L31.44 27.26L31.49 27.22L31.55 27.18L31.6 27.14L31.66 27.1L31.72 27.07L31.77 27.04L31.83 27.01L31.89 26.98L31.95 26.95L32.02 26.93L32.08 26.91L32.14 26.89L32.2 26.87L32.27 26.86L32.33 26.85L32.4 26.84L32.46 26.83L32.53 26.83L32.59 26.82L32.66 26.82L32.72 26.82L32.79 26.83L32.86 26.84L32.92 26.84L32.99 26.86L33.05 26.87L33.12 26.89L33.18 26.9L33.25 26.93L33.31 26.95L42.68 30.72L42.83 30.61L42.97 30.5L43.12 30.39L43.27 30.28L43.42 30.18L43.56 30.07L43.71 29.97L43.86 29.86L44.01 29.76L44.17 29.66L44.32 29.56L44.47 29.46L44.62 29.36L44.78 29.26L44.93 29.16L45.09 29.06L45.25 28.97L45.4 28.87L45.56 28.78L45.72 28.69L45.88 28.59L46.04 28.5L46.2 28.41L46.36 28.32L46.52 28.23L46.69 28.15L46.85 28.06L47.01 27.98L47.18 27.89L47.34 27.81L47.51 27.73L47.68 27.65L47.85 27.57L48.01 27.49L48.18 27.41L48.35 27.34L48.52 27.26L48.7 27.19L48.87 27.11L49.04 27.04L50.45 17.06L50.46 16.99L50.48 16.92L50.5 16.85L50.51 16.78L50.53 16.72L50.56 16.66L50.58 16.59L50.61 16.53L50.64 16.47L50.67 16.41L50.7 16.35L50.73 16.3L50.77 16.24L50.81 16.19L50.85 16.14L50.89 16.09L50.93 16.04L50.98 15.99L51.02 15.95L51.07 15.9L51.12 15.86L51.17 15.82L51.22 15.79L51.28 15.75L51.33 15.72L51.39 15.68L51.45 15.65L51.5 15.63L51.56 15.6L51.63 15.58L51.69 15.55L51.75 15.53L51.81 15.52L51.88 15.5L51.95 15.49L52.01 15.48L52.08 15.47L52.15 15.46L52.22 15.46L52.29 15.46L67.36 15.46L67.43 15.46L67.5 15.46ZM57.15 39.26L55.87 39.57L54.64 40L53.46 40.53L52.34 41.16L51.29 41.89L50.31 42.71L49.41 43.62L48.59 44.6L47.85 45.65L47.22 46.77L46.69 47.95L46.26 49.18L45.95 50.46L45.76 51.78L45.7 53.13L45.76 54.49L45.95 55.81L46.26 57.09L46.69 58.32L47.22 59.5L47.85 60.62L48.59 61.67L49.41 62.65L50.31 63.55L51.29 64.37L52.34 65.1L53.46 65.74L54.64 66.27L55.87 66.7L57.15 67.01L58.47 67.2L59.83 67.26L61.18 67.2L62.5 67.01L63.78 66.7L65.01 66.27L66.19 65.74L67.31 65.1L68.36 64.37L69.34 63.55L70.25 62.65L71.07 61.67L71.8 60.62L72.43 59.5L72.96 58.32L73.39 57.09L73.7 55.81L73.89 54.49L73.95 53.13L73.89 51.78L73.7 50.46L73.39 49.18L72.96 47.95L72.43 46.77L71.8 45.65L71.07 44.6L70.25 43.62L69.34 42.71L68.36 41.89L67.31 41.16L66.19 40.53L65.01 40L63.78 39.57L62.5 39.26L61.18 39.07L59.83 39.01L58.47 39.07L57.15 39.26Z" id="c1SmqvDQXH"></path><path d="M88.11 17.78L95.18 24.85L31.54 88.49L24.47 81.42L88.11 17.78Z" id="b2y82wTCCL"></path></defs><g><g><use xlink:href="#fTJL3a7Bc" opacity="1" fill="#000000" fill-opacity="0"></use><g><use xlink:href="#fTJL3a7Bc" opacity="1" fill-opacity="0" stroke="#000000" stroke-width="1" stroke-opacity="0"></use></g></g><g><use xlink:href="#c1SmqvDQXH" opacity="1" fill="#000000" fill-opacity="1"></use><g><use xlink:href="#c1SmqvDQXH" opacity="1" fill-opacity="0" stroke="#000000" stroke-width="1" stroke-opacity="0"></use></g></g><g><use xlink:href="#b2y82wTCCL" opacity="1" fill="#ffffff" fill-opacity="1"></use><g><use xlink:href="#b2y82wTCCL" opacity="1" fill-opacity="0" stroke="#000000" stroke-width="1" stroke-opacity="1"></use></g></g></g></svg>