<svg xmlns="http://www.w3.org/2000/svg" xmlns:xlink="http://www.w3.org/1999/xlink" viewBox="11.73 5.038 98.191 98.191" width="94.19" height="94.19"><defs><path d="M106.92 6.04v94.19H12.73V6.04h94.19z" id="a"/><path d="M67.5 15.46l.07.01.07.01.07.01.06.01.07.02.06.01.07.02.06.03.06.02.07.03.06.02.06.03.05.04.06.03.06.04.05.03.05.04.05.04.05.05.05.04.05.05.04.05.04.05.05.05.04.05.03.06.04.05.03.06.03.06.03.06.03.06.03.07.02.06.02.06.02.07.02.07.01.07.01.07 1.42 9.98.17.07.17.08.17.07.17.07.17.08.17.08.17.07.16.08.17.08.17.08.16.08.16.09.17.08.16.09.16.08.16.09.16.09.16.09.16.09.16.09.16.09.15.09.16.1.16.09.15.1.16.1.15.1.16.1.15.1.15.1.15.1.16.11.15.1.15.11.15.1.15.11.15.11.15.11.15.11.15.12 9.37-3.77.06-.02.07-.02.06-.02.06-.01.07-.01.07-.01.06-.01h.07l.06-.01h.13l.07.01h.07l.06.01.07.01.06.01.06.01.07.02.06.02.06.02.06.02.06.03.06.02.06.03.06.03.06.03.05.04.06.04.05.04.05.04.06.04.05.05.04.04.05.05.05.06.04.05.04.06.04.05.04.06.03.07 7.54 13.04.03.06.03.06.03.07.02.06.02.06.02.07.02.06.01.06.01.07.01.07.01.06.01.07v.33l-.01.06-.01.07-.01.06-.02.07-.01.06-.02.06-.02.06-.02.07-.02.06-.03.06-.03.06-.03.06-.03.05-.03.06-.04.05-.04.06-.04.05-.04.05-.04.05-.05.05-.05.05-.05.04-.05.04-7.96 6.22.01.09.02.09.01.09.01.09.02.08.01.09.01.09.01.09.01.09.01.09.01.09.01.09.01.09.01.09.01.09.01.1.01.09.01.09v.09l.01.09.01.09.01.1v.09l.01.09v.09l.01.1v.09l.01.09v.19l.01.09v.19l.01.09v1.05l-.01.08v.15l-.01.08v.16l-.01.08v.09l-.01.08v.09l-.01.09v.09l-.01.09v.09l-.01.09-.01.1v.1l-.01.09-.01.1v.11l-.01.1-.01.1-.01.11-.01.1-.01.11-.01.11-.01.11-.01.11-.01.12-.01.11-.01.12-.01.12-.01.12 7.86 6.21.06.05.05.04.05.05.05.05.05.04.04.05.05.06.04.05.03.05.04.06.03.05.04.06.02.06.03.06.03.06.02.06.02.06.02.06.01.07.02.06.01.06.01.07v.06l.01.07v.19l-.01.07-.01.07-.01.06-.01.07-.01.06-.02.07-.02.07-.02.06-.03.07-.02.06-.03.07-.03.06-.04.07-7.53 13.04-.04.06-.04.06-.04.06-.04.06-.04.05-.05.06-.04.05-.05.05-.05.04-.05.05-.05.04-.06.04-.05.04-.06.03-.06.04-.05.03-.06.03-.06.03-.06.02-.06.03-.07.02-.06.02-.06.01-.07.02-.06.01-.07.01-.06.01h-.33l-.07-.01-.06-.01-.07-.01-.06-.01-.07-.02-.06-.02-.07-.02-.06-.02-9.37-3.77-.15.11-.14.11-.15.11-.15.1-.15.11-.14.11-.15.1-.15.1-.15.11-.16.1-.15.1-.15.1-.15.1-.16.1-.15.1-.16.09-.16.1-.15.09-.16.1-.16.09-.16.09-.16.1-.16.09-.16.09-.16.08-.17.09-.16.09-.16.08-.17.09-.16.08-.17.08-.17.08-.17.08-.16.08-.17.08-.17.07-.17.08-.18.07-.17.07-.17.07-1.41 9.99-.01.07-.01.07-.02.07-.01.06-.02.07-.02.06-.02.07-.03.06-.03.06-.03.06-.03.05-.03.06-.04.05-.04.06-.04.05-.04.05-.04.05-.05.04-.04.05-.05.04-.05.04-.06.04-.05.04-.05.04-.06.03-.06.03-.06.03-.06.03-.06.03-.06.02-.06.02-.07.02-.06.02-.07.02-.06.01-.07.01-.07.01-.07.01H52.15l-.07-.01-.07-.01-.06-.01-.07-.01-.07-.02-.06-.02-.06-.02-.07-.02-.06-.02-.06-.03-.06-.03-.05-.03-.06-.03-.06-.03-.05-.04-.05-.04-.05-.04-.05-.04-.05-.04-.05-.05-.05-.04-.04-.05-.04-.05-.04-.05-.04-.06-.04-.05-.04-.06-.03-.05-.04-.06-.03-.06-.03-.06-.02-.07-.03-.06-.02-.07-.02-.06-.02-.07-.02-.07-.01-.07-1.42-9.99-.17-.07-.17-.07-.17-.07-.17-.08-.17-.07-.17-.08-.17-.08-.16-.07-.17-.08-.17-.08-.16-.09-.16-.08-.17-.08-.16-.09-.16-.08-.16-.09-.16-.09-.16-.09-.16-.09-.16-.09-.16-.09-.15-.1-.16-.09-.16-.1-.15-.09-.16-.1-.15-.1-.16-.1-.15-.1-.15-.1-.15-.1-.16-.11-.15-.1-.15-.11-.15-.11-.15-.1-.15-.11-.15-.11-.15-.12-.14-.11-9.38 3.77-.06.02-.06.02-.07.01-.06.02-.07.01-.07.01-.06.01h-.4l-.06-.01-.07-.01-.06-.01-.06-.02-.07-.01-.06-.02-.06-.02-.06-.02-.06-.03-.06-.02-.06-.03-.06-.03-.06-.04-.05-.03-.06-.04-.05-.04-.05-.04-.06-.04-.05-.05-.04-.05-.05-.05-.04-.05-.05-.05-.04-.06-.04-.06-.04-.06-.03-.06-7.54-13.04-.03-.06-.03-.07-.02-.06-.03-.06-.02-.06-.02-.07-.02-.06-.01-.07-.01-.06-.01-.07-.01-.06-.01-.07v-.33l.01-.06.01-.07.01-.06.02-.07.01-.06.02-.06.02-.07.02-.06.02-.06.03-.06.03-.06.03-.06.03-.05.03-.06.04-.06.04-.05.04-.05.04-.05.04-.05.05-.05.05-.05.05-.04.05-.05 7.96-6.21-.01-.09-.02-.09-.01-.09-.01-.09-.02-.09-.01-.09-.01-.09-.01-.09-.01-.09-.01-.09-.01-.09-.01-.09-.01-.1-.01-.09-.01-.09-.01-.09-.01-.09-.01-.1v-.09l-.01-.09-.01-.09-.01-.1v-.09l-.01-.09v-.1l-.01-.09v-.09l-.01-.1v-.18l-.01-.09v-.19l-.01-.09v-1.02l.01-.09v-.19l.01-.09v-.09l.01-.09v-.1l.01-.09.01-.09v-.1l.01-.09.01-.09.01-.09v-.1l.01-.09.01-.09.01-.1.01-.09.01-.09.01-.09.01-.09.01-.1.01-.09.01-.09.02-.09.01-.09.01-.09.01-.09.02-.09.01-.09.01-.09.02-.09.01-.09.01-.09.02-.09-7.96-6.22-.06-.04-.05-.04-.05-.05-.05-.05-.05-.05-.04-.05-.04-.05-.05-.05-.03-.06-.04-.05-.03-.06-.03-.05-.03-.06-.03-.06-.03-.06-.02-.06-.02-.06-.02-.07-.01-.06-.02-.06-.01-.07-.01-.06v-.06l-.01-.07v-.2l.01-.06.01-.07.01-.06.01-.07.01-.07.02-.06.02-.07.02-.06.03-.07.02-.07.03-.06.03-.06.04-.07L31 27.8l.04-.07.04-.06.04-.06.04-.05.04-.06.05-.05.04-.05.05-.05.05-.05.05-.04.05-.04.06-.04.05-.04.06-.04.06-.03.05-.03.06-.03.06-.03.06-.03.07-.02.06-.02.06-.02.06-.02.07-.01.06-.01.07-.01.06-.01h.07l.06-.01h.13l.07.01.07.01h.06l.07.02.06.01.07.02.06.01.07.03.06.02 9.37 3.77.15-.11.14-.11.15-.11.15-.11.15-.1.14-.11.15-.1.15-.11.15-.1.16-.1.15-.1.15-.1.15-.1.16-.1.15-.1.16-.1.16-.09.15-.1.16-.09.16-.09.16-.1.16-.09.16-.09.16-.09.16-.09.17-.08.16-.09.16-.08.17-.09.16-.08.17-.08.17-.08.17-.08.16-.08.17-.08.17-.07.17-.08.18-.07.17-.08.17-.07 1.41-9.98.01-.07.02-.07.02-.07.01-.07.02-.06.03-.06.02-.07.03-.06.03-.06.03-.06.03-.06.03-.05.04-.06.04-.05.04-.05.04-.05.04-.05.05-.05.04-.04.05-.05.05-.04.05-.04.05-.03.06-.04.05-.03.06-.04.06-.03.05-.02.06-.03.07-.02.06-.03.06-.02.06-.01.07-.02.07-.01.06-.01.07-.01.07-.01H67.5zm-10.35 23.8l-1.28.31-1.23.43-1.18.53-1.12.63-1.05.73-.98.82-.9.91-.82.98-.74 1.05-.63 1.12-.53 1.18-.43 1.23-.31 1.28-.19 1.32-.06 1.35.06 1.36.19 1.32.31 1.28.43 1.23.53 1.18.63 1.12.74 1.05.82.98.9.9.98.82 1.05.73 1.12.64 1.18.53 1.23.43 1.28.31 1.32.19 1.36.06 1.35-.06 1.32-.19 1.28-.31 1.23-.43 1.18-.53 1.12-.64 1.05-.73.98-.82.91-.9.82-.98.73-1.05.63-1.12.53-1.18.43-1.23.31-1.28.19-1.32.06-1.36-.06-1.35-.19-1.32-.31-1.28-.43-1.23-.53-1.18-.63-1.12-.73-1.05-.82-.98-.91-.91-.98-.82-1.05-.73-1.12-.63-1.18-.53-1.23-.43-1.28-.31-1.32-.19-1.35-.06-1.36.06-1.32.19z" id="b"/><path d="M88.11 17.78l7.07 7.07-63.64 63.64-7.07-7.07 63.64-63.64z" id="c"/></defs><use xlink:href="#a" fill-opacity="0"/><use xlink:href="#a" fill-opacity="0" stroke="#000" stroke-opacity="0"/><use xlink:href="#b"/><use xlink:href="#b" fill-opacity="0" stroke="#000" stroke-opacity="0"/><use xlink:href="#c" fill="#fff"/><use xlink:href="#c" fill-opacity="0" stroke="#000"/></svg>